<svg width="48" height="48" viewBox="0 0 48 48" fill="none" xmlns="http://www.w3.org/2000/svg">
<g clip-path="url(#clip0_81_21)">
<path d="M48 24C48 30.3652 45.4714 36.4697 40.9706 40.9706C36.4697 45.4714 30.3652 48 24 48C17.6348 48 11.5303 45.4714 7.02944 40.9706C2.52856 36.4697 0 30.3652 0 24C0 17.6348 2.52856 11.5303 7.02944 7.02944C11.5303 2.52856 17.6348 0 24 0C30.3652 0 36.4697 2.52856 40.9706 7.02944C45.4714 11.5303 48 17.6348 48 24ZM20.37 15.279C20.1457 15.1193 19.8818 15.0244 19.6072 15.0048C19.3325 14.9851 19.0578 15.0414 18.813 15.1675C18.5683 15.2936 18.3629 15.4846 18.2195 15.7197C18.0761 15.9547 18.0002 16.2247 18 16.5V31.5C18.0002 31.7753 18.0761 32.0453 18.2195 32.2803C18.3629 32.5154 18.5683 32.7064 18.813 32.8325C19.0578 32.9586 19.3325 33.0149 19.6072 32.9952C19.8818 32.9756 20.1457 32.8807 20.37 32.721L30.87 25.221C31.0644 25.0822 31.2229 24.8991 31.3323 24.6867C31.4417 24.4743 31.4987 24.2389 31.4987 24C31.4987 23.7611 31.4417 23.5257 31.3323 23.3133C31.2229 23.1009 31.0644 22.9178 30.87 22.779L20.37 15.279Z" fill="black"/>
<g clip-path="url(#clip1_81_21)">
<path d="M24 45C18.4305 45 13.089 42.7875 9.15076 38.8492C5.21249 34.911 3 29.5695 3 24C3 18.4305 5.21249 13.089 9.15076 9.15076C13.089 5.21249 18.4305 3 24 3C29.5695 3 34.911 5.21249 38.8492 9.15076C42.7875 13.089 45 18.4305 45 24C45 29.5695 42.7875 34.911 38.8492 38.8492C34.911 42.7875 29.5695 45 24 45ZM24 48C30.3652 48 36.4697 45.4714 40.9706 40.9706C45.4714 36.4697 48 30.3652 48 24C48 17.6348 45.4714 11.5303 40.9706 7.02944C36.4697 2.52856 30.3652 0 24 0C17.6348 0 11.5303 2.52856 7.02944 7.02944C2.52856 11.5303 0 17.6348 0 24C0 30.3652 2.52856 36.4697 7.02944 40.9706C11.5303 45.4714 17.6348 48 24 48Z" fill="black"/>
<path d="M18.813 15.165C19.0584 15.0387 19.3338 14.9825 19.609 15.0026C19.8843 15.0227 20.1486 15.1184 20.373 15.279L30.873 22.779C31.0674 22.9178 31.2259 23.101 31.3353 23.3133C31.4447 23.5257 31.5017 23.7611 31.5017 24C31.5017 24.2389 31.4447 24.4743 31.3353 24.6867C31.2259 24.8991 31.0674 25.0823 30.873 25.221L20.373 32.721C20.1487 32.8816 19.8845 32.9771 19.6094 32.9972C19.3343 33.0174 19.059 32.9612 18.8137 32.835C18.5684 32.7088 18.3627 32.5174 18.2192 32.2819C18.0756 32.0464 17.9998 31.7758 18 31.5V16.5C17.9997 16.2243 18.0754 15.9538 18.2189 15.7183C18.3623 15.4827 18.5679 15.2913 18.813 15.165Z" fill="#F7AB12"/>
</g>
</g>
<defs>
<clipPath id="clip0_81_21">
<rect width="48" height="48" fill="white"/>
</clipPath>
<clipPath id="clip1_81_21">
<rect width="48" height="48" fill="white"/>
</clipPath>
</defs>
</svg>
