<svg width="279" height="38" viewBox="0 0 279 38" fill="none" xmlns="http://www.w3.org/2000/svg">
<path d="M0 37.1V2.1H3.05L19.05 29.4H17.45L33.3 2.1H36.35V37.1H32.8V7.65H33.65L19.05 32.65H17.3L2.6 7.65H3.55V37.1H0Z" fill="white"/>
<path d="M57.7039 37.35C55.1706 37.35 52.8872 36.7833 50.8539 35.65C48.8539 34.4833 47.2706 32.9 46.1039 30.9C44.9372 28.8667 44.3539 26.55 44.3539 23.95C44.3539 21.3167 44.9372 19 46.1039 17C47.2706 15 48.8539 13.4333 50.8539 12.3C52.8539 11.1667 55.1372 10.6 57.7039 10.6C60.3039 10.6 62.6039 11.1667 64.6039 12.3C66.6372 13.4333 68.2206 15 69.3539 17C70.5206 19 71.1039 21.3167 71.1039 23.95C71.1039 26.55 70.5206 28.8667 69.3539 30.9C68.2206 32.9 66.6372 34.4833 64.6039 35.65C62.5706 36.7833 60.2706 37.35 57.7039 37.35ZM57.7039 34.2C59.6039 34.2 61.2872 33.7833 62.7539 32.95C64.2206 32.0833 65.3706 30.8833 66.2039 29.35C67.0706 27.7833 67.5039 25.9833 67.5039 23.95C67.5039 21.8833 67.0706 20.0833 66.2039 18.55C65.3706 17.0167 64.2206 15.8333 62.7539 15C61.2872 14.1333 59.6206 13.7 57.7539 13.7C55.8872 13.7 54.2206 14.1333 52.7539 15C51.2872 15.8333 50.1206 17.0167 49.2539 18.55C48.3872 20.0833 47.9539 21.8833 47.9539 23.95C47.9539 25.9833 48.3872 27.7833 49.2539 29.35C50.1206 30.8833 51.2872 32.0833 52.7539 32.95C54.2206 33.7833 55.8706 34.2 57.7039 34.2Z" fill="white"/>
<path d="M84.3691 37.1L72.7191 10.85H76.4191L87.1191 35.2H85.3691L96.2191 10.85H99.7191L88.0191 37.1H84.3691Z" fill="white"/>
<path d="M104.719 37.1V10.85H108.269V37.1H104.719ZM106.519 5.05C105.785 5.05 105.169 4.8 104.669 4.3C104.169 3.8 103.919 3.2 103.919 2.5C103.919 1.8 104.169 1.21667 104.669 0.749999C105.169 0.25 105.785 0 106.519 0C107.252 0 107.869 0.233333 108.369 0.7C108.869 1.16667 109.119 1.75 109.119 2.45C109.119 3.18334 108.869 3.8 108.369 4.3C107.902 4.8 107.285 5.05 106.519 5.05Z" fill="white"/>
<path d="M129.296 37.35C126.563 37.35 124.163 36.7833 122.096 35.65C120.03 34.4833 118.413 32.9 117.246 30.9C116.08 28.8667 115.496 26.55 115.496 23.95C115.496 21.35 116.046 19.05 117.146 17.05C118.28 15.05 119.813 13.4833 121.746 12.35C123.713 11.1833 125.913 10.6 128.346 10.6C130.813 10.6 132.996 11.1667 134.896 12.3C136.83 13.4 138.346 14.9667 139.446 17C140.546 19 141.096 21.3167 141.096 23.95C141.096 24.1167 141.08 24.3 141.046 24.5C141.046 24.6667 141.046 24.85 141.046 25.05H118.196V22.4H139.146L137.746 23.45C137.746 21.55 137.33 19.8667 136.496 18.4C135.696 16.9 134.596 15.7333 133.196 14.9C131.796 14.0667 130.18 13.65 128.346 13.65C126.546 13.65 124.93 14.0667 123.496 14.9C122.063 15.7333 120.946 16.9 120.146 18.4C119.346 19.9 118.946 21.6167 118.946 23.55V24.1C118.946 26.1 119.38 27.8667 120.246 29.4C121.146 30.9 122.38 32.0833 123.946 32.95C125.546 33.7833 127.363 34.2 129.396 34.2C130.996 34.2 132.48 33.9167 133.846 33.35C135.246 32.7833 136.446 31.9167 137.446 30.75L139.446 33.05C138.28 34.45 136.813 35.5167 135.046 36.25C133.313 36.9833 131.396 37.35 129.296 37.35Z" fill="white"/>
<path d="M159.95 37.1L144.45 2.09998H148.45L162.95 35.05H160.75L175.35 2.09998H179.1L163.6 37.1H159.95Z" fill="#DFA822"/>
<path d="M192.578 37.35C189.844 37.35 187.444 36.7833 185.378 35.65C183.311 34.4833 181.694 32.9 180.528 30.9C179.361 28.8666 178.778 26.55 178.778 23.95C178.778 21.35 179.328 19.05 180.428 17.05C181.561 15.05 183.094 13.4833 185.028 12.35C186.994 11.1833 189.194 10.6 191.628 10.6C194.094 10.6 196.278 11.1666 198.178 12.3C200.111 13.4 201.628 14.9666 202.728 17C203.828 19 204.378 21.3166 204.378 23.95C204.378 24.1166 204.361 24.3 204.328 24.5C204.328 24.6666 204.328 24.85 204.328 25.05H181.478V22.4H202.428L201.028 23.45C201.028 21.55 200.611 19.8666 199.778 18.4C198.978 16.9 197.878 15.7333 196.478 14.9C195.078 14.0666 193.461 13.65 191.628 13.65C189.828 13.65 188.211 14.0666 186.778 14.9C185.344 15.7333 184.228 16.9 183.428 18.4C182.628 19.9 182.228 21.6166 182.228 23.55V24.1C182.228 26.1 182.661 27.8666 183.528 29.4C184.428 30.9 185.661 32.0833 187.228 32.95C188.828 33.7833 190.644 34.2 192.678 34.2C194.278 34.2 195.761 33.9166 197.128 33.35C198.528 32.7833 199.728 31.9166 200.728 30.75L202.728 33.05C201.561 34.45 200.094 35.5166 198.328 36.25C196.594 36.9833 194.678 37.35 192.578 37.35Z" fill="#DFA822"/>
<path d="M211.604 37.1V10.85H215.004V18L214.654 16.75C215.387 14.75 216.62 13.2333 218.354 12.2C220.087 11.1333 222.237 10.6 224.804 10.6V14.05C224.67 14.05 224.537 14.05 224.404 14.05C224.27 14.0166 224.137 14 224.004 14C221.237 14 219.07 14.85 217.504 16.55C215.937 18.2166 215.154 20.6 215.154 23.7V37.1H211.604Z" fill="#DFA822"/>
<path d="M238.624 37.35C236.458 37.35 234.408 37.05 232.474 36.45C230.541 35.8166 229.024 35.0333 227.924 34.1L229.524 31.3C230.591 32.1 231.958 32.8 233.624 33.4C235.291 33.9666 237.041 34.25 238.874 34.25C241.374 34.25 243.174 33.8666 244.274 33.1C245.374 32.3 245.924 31.25 245.924 29.95C245.924 28.9833 245.608 28.2333 244.974 27.7C244.374 27.1333 243.574 26.7166 242.574 26.45C241.574 26.15 240.458 25.9 239.224 25.7C237.991 25.5 236.758 25.2666 235.524 25C234.324 24.7333 233.224 24.35 232.224 23.85C231.224 23.3166 230.408 22.6 229.774 21.7C229.174 20.8 228.874 19.6 228.874 18.1C228.874 16.6666 229.274 15.3833 230.074 14.25C230.874 13.1166 232.041 12.2333 233.574 11.6C235.141 10.9333 237.041 10.6 239.274 10.6C240.974 10.6 242.674 10.8333 244.374 11.3C246.074 11.7333 247.474 12.3166 248.574 13.05L247.024 15.9C245.858 15.1 244.608 14.5333 243.274 14.2C241.941 13.8333 240.608 13.65 239.274 13.65C236.908 13.65 235.158 14.0666 234.024 14.9C232.924 15.7 232.374 16.7333 232.374 18C232.374 19 232.674 19.7833 233.274 20.35C233.908 20.9166 234.724 21.3666 235.724 21.7C236.758 22 237.874 22.25 239.074 22.45C240.308 22.65 241.524 22.9 242.724 23.2C243.958 23.4666 245.074 23.85 246.074 24.35C247.108 24.8166 247.924 25.5 248.524 26.4C249.158 27.2666 249.474 28.4166 249.474 29.85C249.474 31.3833 249.041 32.7166 248.174 33.85C247.341 34.95 246.108 35.8166 244.474 36.45C242.874 37.05 240.924 37.35 238.624 37.35Z" fill="#DFA822"/>
<path d="M267.138 37.35C264.405 37.35 262.005 36.7833 259.938 35.65C257.872 34.4833 256.255 32.9 255.088 30.9C253.922 28.8666 253.338 26.55 253.338 23.95C253.338 21.35 253.888 19.05 254.988 17.05C256.122 15.05 257.655 13.4833 259.588 12.35C261.555 11.1833 263.755 10.6 266.188 10.6C268.655 10.6 270.838 11.1666 272.738 12.3C274.672 13.4 276.188 14.9666 277.288 17C278.388 19 278.938 21.3166 278.938 23.95C278.938 24.1166 278.922 24.3 278.888 24.5C278.888 24.6666 278.888 24.85 278.888 25.05H256.038V22.4H276.988L275.588 23.45C275.588 21.55 275.172 19.8666 274.338 18.4C273.538 16.9 272.438 15.7333 271.038 14.9C269.638 14.0666 268.022 13.65 266.188 13.65C264.388 13.65 262.772 14.0666 261.338 14.9C259.905 15.7333 258.788 16.9 257.988 18.4C257.188 19.9 256.788 21.6166 256.788 23.55V24.1C256.788 26.1 257.222 27.8666 258.088 29.4C258.988 30.9 260.222 32.0833 261.788 32.95C263.388 33.7833 265.205 34.2 267.238 34.2C268.838 34.2 270.322 33.9166 271.688 33.35C273.088 32.7833 274.288 31.9166 275.288 30.75L277.288 33.05C276.122 34.45 274.655 35.5166 272.888 36.25C271.155 36.9833 269.238 37.35 267.138 37.35Z" fill="#DFA822"/>
</svg>
